<svg id="Capa_1" enable-background="new 0 0 512 512" height="512" viewBox="0 0 512 512" width="512" xmlns="http://www.w3.org/2000/svg"><g><g><path d="m407.94 104.505c-4.466-.245-8.172-3.636-8.944-8.04-4.797-27.346-33.938-43.434-59.398-33.862-5.104 1.918-10.85-.547-12.764-5.653-10.758-28.693-38.427-49.118-70.876-49.118-32.45 0-60.119 20.425-70.877 49.118-1.915 5.106-7.66 7.571-12.764 5.653-25.461-9.572-54.601 6.516-59.399 33.862-.773 4.404-4.479 7.795-8.944 8.04-18.873 1.038-34.32 16.714-34.32 36.341 0 .114 0 .227.001.341.142 15.463 12.918 27.84 28.383 27.84h85.611l6.933-6.86h131.333l6.35 6.86h85.611c15.464 0 28.24-12.376 28.382-27.84.002-.114.002-.227.002-.341.001-19.627-15.447-35.303-34.32-36.341z" fill="#e4f6ff"/><g><path d="m141.963 141.188c-.001-.114-.001-.227-.001-.341 0-19.627 15.448-35.304 34.32-36.341 4.465-.245 8.171-3.636 8.944-8.04 4.798-27.346 33.938-43.434 59.399-33.862 5.104 1.918 10.849-.547 12.764-5.653 6.416-17.112 18.849-31.28 34.723-39.932-10.742-5.855-23.058-9.186-36.154-9.186-32.45 0-60.119 20.425-70.877 49.118-1.915 5.106-7.66 7.571-12.764 5.653-25.461-9.572-54.601 6.516-59.399 33.862-.773 4.404-4.479 7.795-8.944 8.04-18.873 1.038-34.32 16.714-34.32 36.341 0 .114 0 .227.001.341.142 15.463 12.918 27.84 28.383 27.84h72.309c-15.465-.001-28.242-12.377-28.384-27.84z" fill="#d3effb"/></g><path d="m321.863 91.443c-12.064 0-88.636 0-99.267 0v3.058l3.652 1.333 17.333 28.5h76.333l3.833 6.506h4.517c0-12.281 0-20.548 0-32.995.002-3.536-2.865-6.402-6.401-6.402z" fill="#ffd064"/><path d="m255.957 281.304c-9.297 0-16.833 7.536-16.833 16.833s7.537 16.833 16.833 16.833 16.833-7.537 16.833-16.833-7.536-16.833-16.833-16.833z" fill="#b1e4f9"/><path d="m255.957 298.137c0-6.227 3.39-11.651 8.417-14.563-2.478-1.435-5.347-2.27-8.417-2.27-9.297 0-16.833 7.536-16.833 16.833s7.537 16.833 16.833 16.833c3.07 0 5.939-.835 8.417-2.27-5.027-2.911-8.417-8.336-8.417-14.563z" fill="#90d8f9"/><path d="m279.123 122.472c-1.953-.709-3.634-2.081-4.686-3.948l-12.154-22.586c-.979-1.739-2.498-3.455-4.28-4.494-16.729 0-31.211 0-35.409 0v3.058l3.652 1.333 17.333 28.5h35.542v-1.863z" fill="#ffc250"/><path d="m319.443 122.017h-69.317c-3.186 0-6.125-1.718-7.688-4.494l-12.154-21.586c-1.563-2.776-4.502-4.494-7.688-4.494h-30.125c-4.872 0-8.823 3.95-8.823 8.823v112.106c0 4.873 3.95 8.823 8.823 8.823h126.972c4.872 0 8.823-3.95 8.823-8.823v-81.532c0-4.873-3.951-8.823-8.823-8.823z" fill="#ffe07d"/><path d="m212.565 212.371v-112.106c0-4.872 3.95-8.823 8.823-8.823h-28.917c-4.872 0-8.823 3.95-8.823 8.823v112.106c0 4.873 3.95 8.823 8.823 8.823h28.917c-4.873 0-8.823-3.95-8.823-8.823z" fill="#ffd064"/><path d="m498.054 375.081c-12.064 0-88.636 0-99.267 0v3.058l3.652 1.333 17.333 28.5h76.333l3.833 6.506h4.517c0-12.281 0-20.548 0-32.995.002-3.536-2.865-6.402-6.401-6.402z" fill="#ffd064"/><path d="m455.314 406.11c-1.953-.709-3.634-2.081-4.686-3.948l-12.154-22.586c-.979-1.739-2.498-3.455-4.28-4.494-16.729 0-31.211 0-35.409 0v3.058l3.652 1.333 17.333 28.5h35.542v-1.863z" fill="#ffc250"/><path d="m495.634 405.655h-69.317c-3.186 0-6.125-1.718-7.688-4.494l-12.154-21.586c-1.563-2.776-4.502-4.494-7.688-4.494h-30.125c-4.872 0-8.823 3.95-8.823 8.823v112.106c0 4.873 3.95 8.823 8.823 8.823h126.972c4.872 0 8.823-3.95 8.823-8.823v-81.532c0-4.873-3.951-8.823-8.823-8.823z" fill="#ffe07d"/><path d="m388.756 496.01v-112.107c0-4.872 3.95-8.823 8.823-8.823h-28.917c-4.872 0-8.823 3.95-8.823 8.823v112.107c0 4.873 3.95 8.823 8.823 8.823h28.917c-4.873-.001-8.823-3.951-8.823-8.823z" fill="#ffd064"/><path d="m321.863 375.081c-12.064 0-88.636 0-99.267 0v3.058l3.652 1.333 17.333 28.5h76.333l3.833 6.506h4.517c0-12.281 0-20.548 0-32.995.002-3.536-2.865-6.402-6.401-6.402z" fill="#ffd064"/><path d="m279.123 406.11c-1.953-.709-3.634-2.081-4.686-3.948l-12.154-22.586c-.979-1.739-2.498-3.455-4.28-4.494-16.729 0-31.211 0-35.409 0v3.058l3.652 1.333 17.333 28.5h35.542v-1.863z" fill="#ffc250"/><path d="m319.443 405.655h-69.317c-3.186 0-6.125-1.718-7.688-4.494l-12.154-21.586c-1.563-2.776-4.502-4.494-7.688-4.494h-30.125c-4.872 0-8.823 3.95-8.823 8.823v112.106c0 4.873 3.95 8.823 8.823 8.823h126.972c4.872 0 8.823-3.95 8.823-8.823v-81.532c0-4.873-3.951-8.823-8.823-8.823z" fill="#ffe07d"/><path d="m212.565 496.01v-112.107c0-4.872 3.95-8.823 8.823-8.823h-28.917c-4.872 0-8.823 3.95-8.823 8.823v112.107c0 4.873 3.95 8.823 8.823 8.823h28.917c-4.873-.001-8.823-3.951-8.823-8.823z" fill="#ffd064"/><path d="m145.672 375.081c-12.064 0-88.636 0-99.267 0v3.058l3.652 1.333 17.333 28.5h76.333l3.833 6.506h4.517c0-12.281 0-20.548 0-32.995.002-3.536-2.865-6.402-6.401-6.402z" fill="#ffd064"/><path d="m102.932 406.11c-1.953-.709-3.634-2.081-4.686-3.948l-12.154-22.586c-.979-1.739-2.498-3.455-4.28-4.494-16.729 0-31.211 0-35.409 0v3.058l3.652 1.333 17.333 28.5h35.542v-1.863z" fill="#ffc250"/><path d="m143.252 405.655h-69.317c-3.186 0-6.125-1.718-7.688-4.494l-12.154-21.586c-1.563-2.776-4.502-4.494-7.688-4.494h-30.125c-4.872 0-8.823 3.95-8.823 8.823v112.106c0 4.873 3.95 8.823 8.823 8.823h126.972c4.872 0 8.823-3.95 8.823-8.823v-81.532c0-4.873-3.951-8.823-8.823-8.823z" fill="#ffe07d"/><path d="m36.374 496.01v-112.107c0-4.872 3.95-8.823 8.823-8.823h-28.917c-4.872 0-8.823 3.95-8.823 8.823v112.107c0 4.873 3.95 8.823 8.823 8.823h28.917c-4.873-.001-8.823-3.951-8.823-8.823z" fill="#ffd064"/></g><path d="m498.098 367.248h-58.408v-69.443c0-4.143-3.357-7.5-7.5-7.5h-153.045c-2.402-7.393-8.251-13.243-15.645-15.645v-46.298h55.986c9 0 16.322-7.322 16.322-16.322v-35.845h78.11c19.089 0 35.757-15.195 35.885-35.681 0-23.302-18.188-42.554-41.409-43.829-.946-.053-1.793-.846-1.969-1.848-5.584-31.831-39.431-50.863-69.424-39.587-1.227.464-2.646-.049-3.104-1.265-12.105-32.29-43.41-53.985-77.897-53.985-34.488 0-65.793 21.695-77.899 53.984-.459 1.223-1.881 1.725-3.103 1.266-30-11.276-63.84 7.757-69.425 39.587-.176 1.001-1.021 1.795-1.968 1.848-22.739 1.249-41.466 19.95-41.408 44.238.179 19.449 16.275 35.271 35.883 35.271h78.111v35.845c0 9 7.322 16.322 16.322 16.322h55.987v46.298c-7.394 2.402-13.244 8.252-15.646 15.645h-153.045c-4.143 0-7.5 3.357-7.5 7.5v69.443c-11.049 0-43.506 0-55.985 0-9.002.001-16.324 7.323-16.324 16.323v112.106c0 9.002 7.322 16.324 16.323 16.324h126.972c9 0 16.322-7.322 16.322-16.323 0-11.13 0-102.994 0-114.526 0-7.666-6.236-13.902-13.902-13.902h-58.406v-61.943h145.545c2.402 7.394 8.252 13.243 15.646 15.645v46.298c-11.049 0-43.506 0-55.986 0-9 0-16.322 7.322-16.322 16.322v112.106c0 9.001 7.322 16.323 16.322 16.323h45.986c4.143 0 7.5-3.357 7.5-7.5s-3.357-7.5-7.5-7.5h-45.986c-.729 0-1.322-.594-1.322-1.323v-112.107c0-.729.593-1.322 1.322-1.322h30.125c.478 0 .919.259 1.153.674l12.153 21.586c2.888 5.129 8.338 8.314 14.224 8.314h69.317c.729 0 1.322.594 1.322 1.323v81.531c0 .729-.593 1.323-1.322 1.323h-45.986c-4.143 0-7.5 3.357-7.5 7.5s3.357 7.5 7.5 7.5h45.986c9 0 16.322-7.322 16.322-16.323 0-11.13 0-102.994 0-114.526 0-7.666-6.236-13.902-13.902-13.902h-58.406v-46.298c7.394-2.402 13.243-8.252 15.645-15.645h145.545v61.943c-11.049 0-43.506 0-55.985 0-9.001 0-16.323 7.322-16.323 16.322v112.106c0 9.001 7.322 16.323 16.323 16.323h126.972c9.001 0 16.323-7.322 16.323-16.323v-28.291c0-4.143-3.357-7.5-7.5-7.5s-7.5 3.357-7.5 7.5v28.291c0 .729-.594 1.323-1.323 1.323h-126.972c-.729 0-1.323-.594-1.323-1.323v-112.106c0-.729.594-1.322 1.323-1.322h30.125c.477 0 .918.259 1.152.674l12.153 21.585c2.887 5.129 8.337 8.315 14.224 8.315h69.317c.729 0 1.323.594 1.323 1.323v18.24c0 4.143 3.357 7.5 7.5 7.5s7.5-3.357 7.5-7.5c0-15.383 0-36.043 0-51.235.001-7.666-6.235-13.902-13.901-13.902zm-353.481 128.429c0 .729-.593 1.323-1.322 1.323h-126.972c-.729 0-1.323-.594-1.323-1.323v-112.107c0-.729.594-1.322 1.323-1.322h30.125c.477 0 .918.259 1.152.674l12.153 21.585c2.887 5.129 8.337 8.315 14.224 8.315h69.317c.729 0 1.322.594 1.322 1.323v81.532zm0-113.429v15.627c-.437-.035-.877-.053-1.322-.053h-69.317c-.477 0-.918-.258-1.152-.674l-8.39-14.9zm176.192-268.011c-.437-.035-.877-.053-1.322-.053h-69.317c-.478 0-.919-.259-1.153-.674l-8.389-14.9h80.182v15.627zm-144.618-14.304v61.262h-78.111c-11.204 0-20.842-8.912-20.884-20.681 0-15.34 11.962-28.013 27.231-28.853 7.854-.431 14.548-6.416 15.919-14.232 3.952-22.522 28.122-36.127 49.373-28.138 8.963 3.369 19.041-1.017 22.426-10.04 9.924-26.468 35.585-44.251 63.855-44.251s53.93 17.783 63.854 44.252c3.378 9.004 13.444 13.415 22.426 10.039 21.253-7.993 45.423 5.623 49.372 28.136 1.37 7.817 8.065 13.804 15.921 14.234 15.22.837 27.342 13.485 27.229 29.124-.104 11.254-9.472 20.409-20.883 20.409h-78.11c0-6.267 0-56.789 0-63.682v-.001c0-7.666-6.236-13.902-13.902-13.902h-129.393c-9 0-16.323 7.323-16.323 16.324zm16.323 113.428c-.729 0-1.322-.593-1.322-1.322 0-12.784 0-100.503 0-112.106 0-.729.593-1.322 1.322-1.322h30.125c.478 0 .919.259 1.153.674l12.153 21.586c2.888 5.129 8.338 8.314 14.224 8.314h69.317c.729 0 1.322.593 1.322 1.322v81.532c0 .729-.593 1.322-1.322 1.322zm128.295 168.887v15.627c-.437-.035-.877-.053-1.322-.053h-69.317c-.478 0-.919-.259-1.153-.674l-8.389-14.9zm-64.809-75.11c-5.146 0-9.334-4.187-9.334-9.333s4.188-9.333 9.334-9.333 9.333 4.187 9.333 9.333-4.187 9.333-9.333 9.333zm241 90.737c-.437-.035-.878-.053-1.323-.053h-69.317c-.477 0-.918-.258-1.152-.674l-8.39-14.9h80.182z"/></g></svg>